<svg width="127" height="48" viewBox="0 0 127 48" fill="none" xmlns="http://www.w3.org/2000/svg">
<path d="M23.5033 0C10.5233 0 0 10.5233 0 23.5033C0 36.4832 10.5233 47.0065 23.5033 47.0065C36.4832 47.0065 47.0065 36.4832 47.0065 23.5033C47.0065 10.5233 36.4782 0 23.5033 0ZM16.349 9.60585C18.6151 7.40994 21.6031 6.22676 24.7566 6.27188C27.9101 6.32201 30.8631 7.59544 33.059 9.85653L28.7875 14.0027C27.6995 12.8797 26.2356 12.248 24.6664 12.2229C23.1022 12.1978 21.6182 12.7844 20.4952 13.8773C18.1739 16.1284 18.1188 19.8484 20.3698 22.1697L24.897 26.8372L20.6255 30.9834L16.0983 26.3158C11.5561 21.6382 11.6714 14.1431 16.349 9.60585ZM30.6525 37.3956C28.3613 39.6216 25.3933 40.7246 22.4254 40.7246C19.337 40.7246 16.2588 39.5264 13.9425 37.1399L18.214 32.9938C20.4651 35.315 24.1851 35.3702 26.5063 33.1191C27.6294 32.0312 28.2611 30.5673 28.2861 28.998C28.3112 27.4338 27.7246 25.9498 26.6317 24.8268L22.1045 20.1593L26.376 16.0131L30.9032 20.6807C33.0991 22.9468 34.2873 25.9298 34.2371 29.0883C34.192 32.2518 32.9186 35.1997 30.6525 37.3956Z" fill="white"/>
<path d="M61.4092 26.099L59.0845 27.7154C59.4895 28.5634 60.0355 29.3495 60.7223 30.0738C61.4092 30.7981 62.2105 31.381 63.1263 31.8227C64.0597 32.2467 65.0724 32.4586 66.1643 32.4586C66.9568 32.4586 67.7141 32.3262 68.4362 32.0612C69.1759 31.8139 69.8363 31.4605 70.4175 31.0012C70.9987 30.5243 71.4566 29.9413 71.7912 29.2523C72.1258 28.5634 72.2931 27.7861 72.2931 26.9205C72.2931 26.1079 72.1523 25.4012 71.8705 24.8006C71.6063 24.2 71.2453 23.6789 70.7874 23.2372C70.3295 22.7779 69.8187 22.3981 69.2552 22.0978C68.7092 21.7975 68.1632 21.5502 67.6173 21.3558C66.631 21.0025 65.8297 20.658 65.2133 20.3224C64.5969 19.9868 64.139 19.6334 63.8396 19.2625C63.5578 18.8738 63.4169 18.441 63.4169 17.964C63.4169 17.4341 63.6195 16.9748 64.0245 16.5861C64.4296 16.1798 65.0636 15.9767 65.9266 15.9767C66.543 15.9767 67.0801 16.1003 67.538 16.3476C68.0135 16.5773 68.4274 16.8953 68.7796 17.3016C69.1319 17.6902 69.4225 18.1142 69.6514 18.5735L72.1875 17.1426C71.8705 16.489 71.4302 15.8618 70.8666 15.2612C70.3207 14.6606 69.6426 14.1659 68.8325 13.7773C68.0223 13.3887 67.0713 13.1943 65.9794 13.1943C64.8699 13.1943 63.8748 13.4063 62.9942 13.8303C62.1313 14.2366 61.4444 14.8196 60.9337 15.5792C60.423 16.3211 60.1676 17.1868 60.1676 18.176C60.1676 19.0416 60.3349 19.7836 60.6695 20.4019C61.0041 21.0025 61.4268 21.5148 61.9375 21.9388C62.4483 22.3451 62.9854 22.6896 63.549 22.9722C64.1126 23.2372 64.6233 23.4492 65.0812 23.6082C65.8561 23.8908 66.5342 24.1823 67.1153 24.4826C67.7141 24.7653 68.1808 25.1186 68.5155 25.5426C68.8501 25.9489 69.0174 26.4965 69.0174 27.1855C69.0174 27.9098 68.7532 28.5016 68.2249 28.9609C67.6965 29.4202 67.0097 29.6498 66.1643 29.6498C65.4599 29.6498 64.8258 29.5085 64.2623 29.2258C63.6987 28.9255 63.1792 28.5104 62.7037 27.9804C62.2457 27.4328 61.8143 26.8057 61.4092 26.099Z" fill="white"/>
<path d="M73.4318 19.8719L79.1115 32.9356L82.7571 24.6946L86.5612 32.9356L92.2409 19.8719H89.1501L86.297 27.159L82.7307 18.9445L79.3757 27.1325L76.5226 19.8719H73.4318Z" fill="white"/>
<path d="M93.9558 15.0227C93.9558 15.4997 94.1319 15.9148 94.4841 16.2681C94.854 16.6038 95.2767 16.7716 95.7522 16.7716C96.2629 16.7716 96.6856 16.6038 97.0202 16.2681C97.3724 15.9148 97.5486 15.4997 97.5486 15.0227C97.5486 14.5281 97.3724 14.1129 97.0202 13.7773C96.6856 13.4417 96.2629 13.2738 95.7522 13.2738C95.2767 13.2738 94.854 13.4417 94.4841 13.7773C94.1319 14.1129 93.9558 14.5281 93.9558 15.0227ZM94.3521 19.8719V32.0612H97.1523V19.8719H94.3521Z" fill="white"/>
<path d="M103.852 37.8908V19.8719H100.973V37.8908H103.852ZM113.917 25.9665C113.917 24.6063 113.644 23.4492 113.098 22.4953C112.553 21.5413 111.83 20.817 110.932 20.3224C110.034 19.8101 109.057 19.5539 108 19.5539C106.961 19.5539 106.054 19.8189 105.279 20.3489C104.522 20.8612 103.932 21.5943 103.509 22.5483C103.104 23.5022 102.901 24.6416 102.901 25.9665C102.901 27.2738 103.104 28.4132 103.509 29.3848C103.932 30.3388 104.522 31.0807 105.279 31.6107C106.054 32.123 106.961 32.3792 108 32.3792C109.057 32.3792 110.034 32.1318 110.932 31.6372C111.83 31.1249 112.553 30.3918 113.098 29.4378C113.644 28.4662 113.917 27.3091 113.917 25.9665ZM110.959 25.9665C110.959 26.7792 110.791 27.477 110.457 28.0599C110.122 28.6252 109.673 29.058 109.109 29.3583C108.563 29.641 107.956 29.7823 107.287 29.7823C106.741 29.7823 106.204 29.641 105.675 29.3583C105.147 29.058 104.707 28.6252 104.354 28.0599C104.02 27.4946 103.852 26.7968 103.852 25.9665C103.852 25.1363 104.02 24.4385 104.354 23.8732C104.707 23.3079 105.147 22.8839 105.675 22.6013C106.204 22.3009 106.741 22.1508 107.287 22.1508C107.956 22.1508 108.563 22.3009 109.109 22.6013C109.673 22.8839 110.122 23.3167 110.457 23.8997C110.791 24.465 110.959 25.1539 110.959 25.9665Z" fill="white"/>
<path d="M127 19.8719H123.935L120.131 29.4378L121.479 29.5173L117.595 19.8719H114.319L119.207 30.6303L116.037 37.8908H119.075L127 19.8719Z" fill="white"/>
</svg>
