<svg width="154" height="57" viewBox="0 0 154 57" fill="none" xmlns="http://www.w3.org/2000/svg">
<path d="M28.5 0C12.7606 0 0 12.7606 0 28.5C0 44.2394 12.7606 57 28.5 57C44.2394 57 57 44.2394 57 28.5C57 12.7606 44.2334 0 28.5 0ZM19.8248 11.648C22.5726 8.98528 26.1959 7.55055 30.0198 7.60527C33.8437 7.66606 37.4245 9.21022 40.0872 11.952L34.9076 16.9796C33.5884 15.6179 31.8132 14.8519 29.9104 14.8215C28.0137 14.7911 26.2142 15.5023 24.8524 16.8276C22.0376 19.5573 21.9708 24.0682 24.7004 26.8829L30.1901 32.5428L25.0105 37.5704L19.5208 31.9105C14.0129 26.2385 14.1527 17.1499 19.8248 11.648ZM37.1692 45.3459C34.3909 48.0451 30.7919 49.3826 27.1929 49.3826C23.4481 49.3826 19.7153 47.9296 16.9067 45.0358L22.0863 40.0082C24.8159 42.823 29.3268 42.8898 32.1415 40.1602C33.5033 38.841 34.2693 37.0658 34.2997 35.163C34.3301 33.2662 33.6188 31.4667 32.2935 30.1049L26.8039 24.4451L31.9835 19.4174L37.4731 25.0773C40.1359 27.8252 41.5767 31.4424 41.5159 35.2724C41.4612 39.1085 39.917 42.6831 37.1692 45.3459Z" fill="#6722B5"/>
<path d="M74.465 31.6482L71.646 33.6083C72.1372 34.6365 72.7992 35.5897 73.6321 36.468C74.465 37.3463 75.4366 38.0532 76.5471 38.5887C77.679 39.1028 78.907 39.3599 80.231 39.3599C81.192 39.3599 82.1103 39.1992 82.9859 38.8779C83.8828 38.578 84.6837 38.1496 85.3884 37.5926C86.0932 37.0142 86.6484 36.3073 87.0542 35.4719C87.4599 34.6365 87.6628 33.6939 87.6628 32.6443C87.6628 31.6589 87.492 30.8021 87.1503 30.0738C86.8299 29.3454 86.3921 28.7135 85.8369 28.178C85.2816 27.621 84.6623 27.1605 83.9789 26.7963C83.3169 26.4321 82.6549 26.1323 81.9929 25.8966C80.7969 25.4682 79.8253 25.0505 79.0778 24.6435C78.3303 24.2365 77.7751 23.808 77.4121 23.3582C77.0704 22.8869 76.8995 22.3621 76.8995 21.7837C76.8995 21.1411 77.1451 20.5841 77.6363 20.1129C78.1275 19.6202 78.8963 19.3738 79.9427 19.3738C80.6902 19.3738 81.3415 19.5238 81.8968 19.8237C82.4734 20.1022 82.9752 20.4877 83.4023 20.9804C83.8295 21.4517 84.1818 21.9658 84.4595 22.5228L87.5347 20.7876C87.1503 19.9951 86.6164 19.2346 85.933 18.5063C85.271 17.778 84.4488 17.1782 83.4664 16.7069C82.484 16.2356 81.3308 16 80.0068 16C78.6614 16 77.4548 16.2571 76.387 16.7712C75.3405 17.2639 74.5077 17.9708 73.8884 18.8919C73.269 19.7916 72.9594 20.8412 72.9594 22.0408C72.9594 23.0904 73.1623 23.9901 73.568 24.7399C73.9738 25.4682 74.4863 26.0894 75.1056 26.6035C75.7249 27.0962 76.3763 27.5139 77.0597 27.8567C77.7431 28.178 78.3624 28.435 78.9176 28.6278C79.8573 28.9706 80.6795 29.324 81.3842 29.6882C82.1103 30.0309 82.6762 30.4593 83.082 30.9735C83.4878 31.4661 83.6906 32.1302 83.6906 32.9656C83.6906 33.8439 83.3703 34.5615 82.7296 35.1185C82.089 35.6754 81.2561 35.9539 80.231 35.9539C79.3768 35.9539 78.608 35.7825 77.9246 35.4398C77.2412 35.0756 76.6112 34.5722 76.0346 33.9296C75.4794 33.2655 74.9561 32.5051 74.465 31.6482Z" fill="#2C0941"/>
<path d="M89.0435 24.0972L95.9307 39.9382L100.351 29.9452L104.964 39.9382L111.851 24.0972H108.104L104.644 32.9335L100.319 22.9726L96.2511 32.9014L92.7915 24.0972H89.0435Z" fill="#2C0941"/>
<path d="M113.931 18.2171C113.931 18.7955 114.144 19.2989 114.572 19.7273C115.02 20.1343 115.533 20.3378 116.109 20.3378C116.729 20.3378 117.241 20.1343 117.647 19.7273C118.074 19.2989 118.287 18.7955 118.287 18.2171C118.287 17.6173 118.074 17.1139 117.647 16.7069C117.241 16.2999 116.729 16.0964 116.109 16.0964C115.533 16.0964 115.02 16.2999 114.572 16.7069C114.144 17.1139 113.931 17.6173 113.931 18.2171ZM114.411 24.0972V38.8779H117.807V24.0972H114.411Z" fill="#2C0941"/>
<path d="M125.931 45.9469V24.0972H122.44V45.9469H125.931ZM138.136 31.4876C138.136 29.8381 137.805 28.435 137.143 27.2783C136.481 26.1215 135.606 25.2433 134.517 24.6435C133.427 24.0223 132.242 23.7116 130.961 23.7116C129.701 23.7116 128.601 24.033 127.661 24.6756C126.743 25.2968 126.028 26.1858 125.515 27.3425C125.024 28.4993 124.778 29.881 124.778 31.4876C124.778 33.0727 125.024 34.4544 125.515 35.6326C126.028 36.7893 126.743 37.689 127.661 38.3316C128.601 38.9529 129.701 39.2635 130.961 39.2635C132.242 39.2635 133.427 38.9636 134.517 38.3638C135.606 37.7426 136.481 36.8536 137.143 35.6968C137.805 34.5187 138.136 33.1156 138.136 31.4876ZM134.549 31.4876C134.549 32.4729 134.346 33.3191 133.94 34.026C133.534 34.7115 132.99 35.2363 132.306 35.6004C131.644 35.9432 130.907 36.1146 130.096 36.1146C129.434 36.1146 128.782 35.9432 128.142 35.6004C127.501 35.2363 126.967 34.7115 126.54 34.026C126.134 33.3405 125.931 32.4944 125.931 31.4876C125.931 30.4808 126.134 29.6346 126.54 28.9491C126.967 28.2637 127.501 27.7496 128.142 27.4068C128.782 27.0427 129.434 26.8606 130.096 26.8606C130.907 26.8606 131.644 27.0427 132.306 27.4068C132.99 27.7496 133.534 28.2744 133.94 28.9813C134.346 29.6668 134.549 30.5022 134.549 31.4876Z" fill="#2C0941"/>
<path d="M154 24.0972H150.284L145.671 35.6968L147.305 35.7932L142.596 24.0972H138.624L144.55 37.1428L140.706 45.9469H144.39L154 24.0972Z" fill="#2C0941"/>
</svg>
